# xmcd
#
# Track frame offsets: 
#        150
#        30827
#        59140
#        72817
#        97740
#        110607
#        131907
#        171887
#        188255
#        205277
#        215575
#        221725
#        228880
#        235270
#        256437
#        278510
#        293430
#
# Disc length: 4057 seconds
#
# Revision: 4
# Processed by: cddbd v1.5.2PL0 Copyright (c) Steve Scherf et al.
# Submitted via: ExactAudioCopy v1.0b2
#
DISCID=f30fd711
DTITLE=Nelson Freire - Nelson Freire live in Miami (12-13-84)
DYEAR=1984
DGENRE=Instrumental
TTITLE0=Mozart - Sonata K331 - I. Andante grazioso
TTITLE1=Mozart - Sonata K331 - II. Menuetto
TTITLE2=Mozart - Sonata K331 - III. Alla Turca
TTITLE3=Chopin - Impromptu No.2 in F sharp, Op.36
TTITLE4=Chopin - Mazurka Op.41 No.1
TTITLE5=Chopin - Mazurka Op.24 No.4
TTITLE6=Chopin - Scherzo no.2 in B flat minor, Op.31
TTITLE7=Debussy - Images - Poissons d'or
TTITLE8=Villa-Lobos - A Lenda do caboclo
TTITLE9=Villa-Lobos - The Baby's Family - The Porcelain Doll
TTITLE10=Villa-Lobos - The Baby's Family - The Paper Doll
TTITLE11=Villa-Lobos - The Baby's Family - The Rag Doll
TTITLE12=Villa-Lobos - The Baby's Family - O Polichinelo
TTITLE13=Albeniz  - Iberia - Evocacion
TTITLE14=Albeniz - Iberia - Navarra
TTITLE15=Albeniz-Godowsky - Tango
TTITLE16=Rachmaninov - Prelude Op.32 No.12
EXTD=
EXTT0=
EXTT1=
EXTT2=
EXTT3=
EXTT4=
EXTT5=
EXTT6=
EXTT7=
EXTT8=
EXTT9=
EXTT10=
EXTT11=
EXTT12=
EXTT13=
EXTT14=
EXTT15=
EXTT16=
PLAYORDER=
